<svg xmlns="http://www.w3.org/2000/svg" width="349.457" height="345.97" color-interpolation-filters="linearRGB" viewBox="0 0 349.457 345.97"><defs><style>.a{fill:#e5e9ff;}.b{fill:#4f3633;}.c{fill:#6a5e63;}.d{fill:#817f7e;}.e{fill:#90e1ff;}.f{fill:#34bdd1;}.g{fill:#be4533;}.h{fill:#f17b48;}.i{fill:#f9d4a4;}.j{fill:#f7b995;}.k{fill:#ffa654;}.l{fill:#383143;}</style></defs><g transform="translate(-13.091 -69.186)"><g transform="translate(-45.243 -51.493)"><g transform="translate(99.514 154.384)"><circle class="a" cx="132.632" cy="132.632" r="132.632"/></g><g transform="translate(133.874 155.205)"><path class="a" d="M194.414,172.464H109.7A12.968,12.968,0,0,1,96.733,159.5h0A12.97,12.97,0,0,1,109.7,146.528h84.713A12.968,12.968,0,0,1,207.382,159.5h0A12.967,12.967,0,0,1,194.414,172.464Z" transform="translate(-96.733 -146.528)"/></g><g transform="translate(117.679 363.771)"><rect class="a" width="74.757" height="20.322" rx="4.859" transform="translate(74.757 20.322) rotate(180)"/></g><g transform="translate(108.144 403.834)"><path class="a" d="M3.148,0H90.677a3.149,3.149,0,0,1,3.149,3.149v6.871a3.15,3.15,0,0,1-3.15,3.15H3.149A3.149,3.149,0,0,1,0,10.022V3.148A3.148,3.148,0,0,1,3.148,0Z" transform="translate(93.827 13.171) rotate(180)"/></g><g transform="translate(284.314 417.005)"><path class="a" d="M3.148,0H22.33a3.148,3.148,0,0,1,3.148,3.148v6.872a3.15,3.15,0,0,1-3.15,3.15H3.149A3.149,3.149,0,0,1,0,10.022V3.148A3.148,3.148,0,0,1,3.148,0Z" transform="translate(25.478 13.171) rotate(180)"/></g><g transform="translate(212.463 378.048)"><path class="a" d="M147.484,259.8H268.939a10.8,10.8,0,0,1,10.8,10.8h0a10.8,10.8,0,0,1-10.8,10.8H147.484a10.8,10.8,0,0,1-10.8-10.8h0A10.8,10.8,0,0,1,147.484,259.8Z" transform="translate(-136.682 -259.805)"/></g><g transform="translate(137.224 383.947)"><path class="a" d="M98.436,262.8h37.926a10.213,10.213,0,0,0-7.186,3.045,9.308,9.308,0,0,0-2.98,6.828,9.861,9.861,0,0,0,10.167,9.8H98.436a9.5,9.5,0,0,0,10.157-9.637A10.048,10.048,0,0,0,98.436,262.8Z" transform="translate(-98.436 -262.804)"/></g><g transform="translate(267.655 268.103)"><path class="a" d="M182.988,203.917h97.777a18.251,18.251,0,0,1,18.25,18.25h0a18.252,18.252,0,0,1-18.25,18.252H182.988a18.252,18.252,0,0,1-18.25-18.252h0A18.251,18.251,0,0,1,182.988,203.917Z" transform="translate(-164.738 -203.917)"/></g><g transform="translate(239.26 339.661)"><path class="a" d="M162.133,240.292H307.006a11.832,11.832,0,0,1,11.829,11.831h0a11.83,11.83,0,0,1-11.829,11.827H162.133A11.828,11.828,0,0,1,150.3,252.123h0A11.83,11.83,0,0,1,162.133,240.292Z" transform="translate(-150.304 -240.292)"/></g><g transform="translate(314.753 304.55)"><path class="a" d="M188.679,222.444H256.8a18.153,18.153,0,0,0-12.9,5.276,16.685,16.685,0,0,0-5.357,12.254c0,10.082,8.182,17.581,18.26,17.581H188.679c5.032,0,9.594-1.422,12.9-4.7a17.32,17.32,0,0,0,5.341-12.533A17.918,17.918,0,0,0,188.679,222.444Z" transform="translate(-188.679 -222.444)"/></g><g transform="translate(70.234 213.294)"><path class="a" d="M198.332,214.81H83.758a19.374,19.374,0,0,1-19.375-19.377h0a19.376,19.376,0,0,1,19.375-19.377H198.332a19.377,19.377,0,0,1,19.377,19.377h0A19.376,19.376,0,0,1,198.332,214.81Z" transform="translate(-64.383 -176.056)"/></g><g transform="translate(58.334 305.28)"><path class="a" d="M251.9,278.82H86.336a28,28,0,0,1-28-28h0a28,28,0,0,1,28-28H251.9a28,28,0,0,1,28,28h0A28,28,0,0,1,251.9,278.82Z" transform="translate(-58.334 -222.815)"/></g><g transform="translate(238.721 176.961)"><path class="a" d="M256.9,188.506H165.49a15.461,15.461,0,0,1-15.46-15.462h0a15.458,15.458,0,0,1,15.46-15.457H256.9a15.458,15.458,0,0,1,15.458,15.457h0A15.46,15.46,0,0,1,256.9,188.506Z" transform="translate(-150.03 -157.587)"/></g><g transform="translate(287.351 137.557)"><rect class="a" width="38.533" height="16.827" rx="4.276" transform="translate(0)"/></g></g><g transform="translate(14.823 -158.071)"><g transform="translate(29.177 405.021)"><g transform="translate(95.077)"><path class="b" d="M156.924,462.15a27.134,27.134,0,0,1-5.46-.561A26.4,26.4,0,0,1,134.3,449.673l-5.645-8.99a9.184,9.184,0,0,0-12.564-2.922l-24.38,15.061-5.069-8.208,24.378-15.061a18.856,18.856,0,0,1,25.806,6l5.645,8.99a16.973,16.973,0,0,0,24,4.955,25.06,25.06,0,0,0,8.643-30.96l-28.763-63.809a14.179,14.179,0,0,1,18.79-18.737l18.217,8.276-3.991,8.785-18.217-8.276a4.53,4.53,0,0,0-6,5.986l28.763,63.811a34.705,34.705,0,0,1-11.968,42.874A26.391,26.391,0,0,1,156.924,462.15Z" transform="translate(-86.644 -334.702)"/></g><g transform="translate(95.08 0.039)"><g transform="translate(91.75 9.081)"><rect class="c" width="9.648" height="1.072" transform="translate(0 8.786) rotate(-65.599)"/></g><g transform="translate(2.813)"><path class="c" d="M155.8,462.128h-.043c-.867,0-1.737-.043-2.588-.127l.95-9.6q.816.079,1.638.079Zm2.645-.137-.978-9.6c.556-.056,1.112-.141,1.664-.252l1.919,9.454C160.192,461.767,159.316,461.9,158.447,461.99Zm-7.869-.369a25.9,25.9,0,0,1-2.558-.639l2.789-9.235q.807.243,1.631.405Zm13.035-.682-2.859-9.215q.8-.248,1.577-.577l3.761,8.886C165.283,460.375,164.448,460.682,163.614,460.94Zm-18.078-.844a26.416,26.416,0,0,1-2.391-1.133l4.573-8.5a15.927,15.927,0,0,0,1.51.713Zm22.931-1.211-4.619-8.472a16.525,16.525,0,0,0,1.434-.877l5.435,7.973C169.994,458,169.236,458.465,168.466,458.885Zm-27.573-1.276a26.281,26.281,0,0,1-2.118-1.58l6.153-7.432a16.228,16.228,0,0,0,1.342,1Zm31.833-1.583-5.978-7.574q.707-.561,1.367-1.166l6.528,7.106C174.027,454.957,173.388,455.5,172.727,456.026Zm-35.893-1.772c-.614-.619-1.2-1.279-1.76-1.964l7.493-6.077q.536.658,1.122,1.251Zm39.591-1.621-7.02-6.623q.623-.658,1.19-1.357l7.485,6.092Q177.287,451.715,176.424,452.633Zm-83-1.567-5.074-8.208,1.836-1.135,5.076,8.208Zm40.092-.907-1.206-1.909,8.17-5.13,1.1,1.74ZM97.091,448.8l-5.066-8.211,1.836-1.133,5.068,8.211Zm82.5-.053-7.907-5.529q.521-.745.984-1.521l8.286,4.944Q180.312,447.714,179.591,448.743Zm-78.825-2.217L95.7,438.315l1.838-1.133,5.066,8.209Zm30.391-.1-1.148-1.83,8.171-5.13,1.148,1.828Zm51-1.979-8.616-4.34q.407-.811.754-1.646l8.908,3.706Q182.721,443.32,182.157,444.443Zm-77.717-.187-5.066-8.211,1.838-1.133,5.066,8.209Zm24.42-1.492-1.15-1.83,8.171-5.13,1.148,1.828Zm-20.742-.778-5.069-8.211,1.836-1.135,5.069,8.211Zm75.959-2.167-9.147-3.066q.285-.854.508-1.729l9.349,2.381Q184.477,438.626,184.078,439.819Zm-72.282-.1-5.076-8.208,1.838-1.137,5.074,8.208Zm15.037-.031a9.133,9.133,0,0,0-.981-1.011l6.39-7.232a18.688,18.688,0,0,1,2.022,2.088Zm-2.1-1.86a9.259,9.259,0,0,0-1.252-.668l3.89-8.831a19.09,19.09,0,0,1,2.554,1.367Zm-9.422-.271-4.737-8.4a18.788,18.788,0,0,1,2.632-1.228l3.382,9.038A9.081,9.081,0,0,0,115.307,437.552Zm6.843-.86a9.438,9.438,0,0,0-1.406-.26l1.037-9.593a19.06,19.06,0,0,1,2.839.526Zm-4.2-.126-1.957-9.449a18.56,18.56,0,0,1,2.89-.366l.457,9.639A8.787,8.787,0,0,0,117.946,436.566Zm67.373-1.6-9.495-1.722q.161-.888.256-1.783l9.6,1.014Q185.542,433.732,185.319,434.968Zm.531-4.991-9.644-.326q.015-.419.015-.839c0-.321-.007-.644-.02-.965l9.642-.384c.017.45.027.9.027,1.348C185.87,429.2,185.863,429.591,185.85,429.976Zm-9.784-3.943c-.066-.6-.156-1.19-.266-1.785l9.487-1.767c.154.827.276,1.658.369,2.487Zm-.66-3.552c-.152-.582-.328-1.16-.523-1.737l9.133-3.112c.271.794.511,1.595.723,2.4Zm-1.17-3.426-.837-1.873,8.8-3.966.6,1.34c.108.235.215.485.321.733Zm-1.724-3.842-.888-1.967,8.8-3.969.887,1.969Zm-1.775-3.939-.887-1.969,8.8-3.966.888,1.97Zm-1.777-3.939-.887-1.969,8.8-3.961.887,1.969Zm-1.774-3.934-.887-1.969,8.8-3.967.888,1.967Zm-1.775-3.941-.888-1.97,8.8-3.961.887,1.969Zm-1.775-3.936-.887-1.969,8.8-3.967.888,1.967Zm-1.775-3.939-.887-1.969,8.8-3.966.888,1.97Zm-1.775-3.939-.887-1.969,8.8-3.962.887,1.97Zm-1.775-3.938-.887-1.969,8.8-3.966.888,1.97Zm-1.775-3.939-.887-1.969,8.8-3.961.887,1.969Zm-1.775-3.934-.887-1.969,8.8-3.967.888,1.967Zm-1.774-3.939-.888-1.97,8.8-3.964.887,1.969Zm-1.777-3.939-.887-1.969,8.8-3.964.887,1.967Zm-1.774-3.938-.888-1.97,8.8-3.964.887,1.969Zm-1.777-3.939-.887-1.969,8.8-3.962.887,1.97Zm-1.774-3.938-.645-1.43c-.117-.256-.233-.534-.338-.811l9.017-3.431c.035.088.071.175.111.261l.65,1.446Zm29.428-4.442-1.965-.893,3.991-8.784,1.967.893Zm-31.223-.928a14.061,14.061,0,0,1-.136-1.934c0-.468.025-.92.069-1.367l9.6.95c-.013.142-.022.285-.022.43a4.187,4.187,0,0,0,.043.577Zm27.292-.857-1.967-.9,3.991-8.785,1.967.893Zm-3.934-1.788-1.965-.9,3.992-8.782,1.965.893Zm-13.606-.678-9.1-3.211a14.275,14.275,0,0,1,1.426-2.923L154.3,346.5A4.608,4.608,0,0,0,153.841,347.447Zm9.674-1.109-1.965-.893,3.992-8.782,1.965.893Zm-8.534-.675L148.2,338.8a14.566,14.566,0,0,1,2.54-2l5.084,8.2A4.855,4.855,0,0,0,154.981,345.664Zm4.811-1.008a4.627,4.627,0,0,0-1.014-.28l1.433-9.543a14.371,14.371,0,0,1,3.143.855Zm-3.016-.111-3.087-9.141a13.818,13.818,0,0,1,3.236-.678l.834,9.612A4.264,4.264,0,0,0,156.776,344.545Z" transform="translate(-88.346 -334.726)"/></g><g transform="translate(0 109.307)"><rect class="c" width="1.071" height="9.649" transform="matrix(0.851, -0.525, 0.525, 0.851, 0, 0.562)"/></g></g><g transform="translate(186.799 8.672)"><path class="b" d="M179.868,434.5l44.292-23.045a2.388,2.388,0,0,0,1.022-3.22l-3.114-6.011a2.388,2.388,0,0,0-3.22-1.022l-44.293,23.043a2.392,2.392,0,0,0-1.022,3.221l3.115,6.011A2.388,2.388,0,0,0,179.868,434.5Z" transform="translate(-121.677 -300.03)"/><path class="d" d="M164.543,361.912l48.4,95.414,10.088-5.226-50.368-97.853-25.7-14.3-4.871,9.979Z" transform="translate(-142.084 -339.944)"/><path class="d" d="M216.183,401.777l-.659-1.075-22.3.514-5.712,2.959L174.583,422.01l.5,1.159Z" transform="translate(-120.814 -300.18)"/><path class="e" d="M222.4,403.2l-.531-.859a4.821,4.821,0,0,0-6.315-1.741l-39.882,20.76a4.821,4.821,0,0,0-2.22,6.161l.394.93Z" transform="translate(-121.803 -300.602)"/></g><rect class="d" width="18.046" height="13.314" transform="matrix(0.861, -0.508, 0.508, 0.861, 94.457, 107.607)"/><path class="e" d="M8.751,0H64.714A31.937,31.937,0,0,1,96.651,31.937v32.27A8.752,8.752,0,0,1,87.9,72.959H8.751A8.751,8.751,0,0,1,0,64.207V8.751A8.751,8.751,0,0,1,8.751,0Z" transform="translate(12.046 90.614)"/><path class="f" d="M112.2,443.026a41.569,41.569,0,0,0-41.57-41.57H36.458v38.653a14.478,14.478,0,0,0,14.478,14.478H112.2Z" transform="translate(-24.412 -291.015)"/><path class="g" d="M36.458,420.932v6.431a14.478,14.478,0,0,0,14.478,14.478H118.63a14.478,14.478,0,0,0,14.478-14.478v-5.642c0-.265-.017-.524-.02-.789Z" transform="translate(-24.412 -278.269)"/><circle class="b" cx="23.359" cy="23.359" r="23.359" transform="matrix(0.988, -0.156, 0.156, 0.988, 0, 122.059)"/><circle class="f" cx="17.103" cy="17.103" r="17.103" transform="translate(7.098 127.341) rotate(-9.188)"/><path class="h" d="M45.323,402.375h9.545V385.643A4.771,4.771,0,0,0,50.1,380.87h0a4.772,4.772,0,0,0-4.773,4.773Z" transform="translate(-18.61 -304.488)"/></g><g transform="translate(97.864 227.257)"><path class="i" d="M116.693,269.888l-1.927,19.772,20.055.725s-2.553-10.091,3.043-7.548l4.211,1.251a3.146,3.146,0,0,0,3.913-2.119l1.736-5.839,3.074-.265a1.282,1.282,0,0,0,1.077-1.769,20.38,20.38,0,0,1-1.509-6.848L153.6,255.4a17.055,17.055,0,0,0-11.154-20.017l-9.131-3.086a12.047,12.047,0,0,0-12.819,3.36h0a25.964,25.964,0,0,0-6.6,19.044Z" transform="translate(-42.455 -224.375)"/><path class="j" d="M138.313,260.065a20.381,20.381,0,0,1-1.509-6.848l.031-.117-2.273,8.96h.036l2.637-.227A1.282,1.282,0,0,0,138.313,260.065Z" transform="translate(-28.894 -210.344)"/><path class="i" d="M134.147,313.195c.352-2.991,5.8-5.6,8.542-4.358l19.991,49.45,7.1,3.962,2.9,8.377-5.584,13.856-15.061-9.1,2.513-5.17,16.579,3.1-7.341-6.894-10.043-5.243L133.07,324.649C131.761,322.711,134.147,313.195,134.147,313.195Z" transform="translate(-30.127 -174.075)"/><path class="e" d="M135.921,343.11l2.672-1.578c5.824-3.441,10.4-11.121,9.134-14.89l-4.252-51.086L126.522,279.9Z" transform="translate(-34.156 -195.648)"/><path class="h" d="M157.659,483.224l-15.1-1.248L106.543,332.8l33.944,2.806Z" transform="translate(-47.231 -158.185)"/><path class="i" d="M120.245,264.544l-7.028,5.04a2.3,2.3,0,0,0-.883.933,2.2,2.2,0,0,0,.048,1.348,30.438,30.438,0,0,0,13.361,18.129,6.122,6.122,0,0,0,2.411,1,4.56,4.56,0,0,0,3.64-1.466,12.694,12.694,0,0,0,2.2-3.393q1.864-3.725,3.516-7.553a11.281,11.281,0,0,0,1.244-4.795A5.977,5.977,0,0,0,135,268.556c-2.846-1.085-5.283-2.1-8.186-3.014a10.656,10.656,0,0,0-2.74-.6C122.649,264.88,121.406,263.712,120.245,264.544Z" transform="translate(-43.5 -203.049)"/><path class="e" d="M138.188,373.225,97.953,362.138l.658-94.417,24.9-1.324,12.536,3.676,2.791,11.479s4.308-12.016,5.485-12.145c2.093-.233,3.306,2.012,3.306,2.012l14.543,10.129L157.33,286.7l3.152,19.387-9.864,5.854-8.024,22.974Z" transform="translate(-52.853 -201.641)"/><path class="f" d="M138.023,268.4l-3.987.9L129.8,279.92l-3.145-10.626L114.887,264l-2.643,4.077,9.28,12.881,4.653-8.583,3,14.166,5.811-12.167,3.768,8,.648-9.631Z" transform="translate(-43.5 -203.213)"/><path class="f" d="M132.075,325.633l-3.178-19.35,8.9-27.572,3.608,26.513Z" transform="translate(-32.602 -193.582)"/><path class="k" d="M102.962,267.637l12.534-.974a7.336,7.336,0,0,1,7.558,6.413l6.416,22.386,23.037,1.221-.036-24.373,6.343,4.417,4.168,31.749-10.772,23.162-2.778,47.251-33.944,26.923L92.878,369.037l8.4-26.609,10.658.407a4.459,4.459,0,0,0,4.81-4.075l-.4-61.448a8.4,8.4,0,0,0-6.993-8.228Z" transform="translate(-56.175 -201.472)"/><path class="h" d="M143.058,306.4l6.726-14.463-30.849,5.17-5.894,14.3Z" transform="translate(-42.979 -184.929)"/><path class="k" d="M119.206,485.54l-14.07-1.163L92.878,328.538l32.307,7.849Z" transform="translate(-56.175 -160.973)"/><path class="i" d="M110.263,314.207l-27.95,47.61,2.025,11.162-7.527,7.286-6.117-6.419,6.193-18.432,18.074-45.636Z" transform="translate(-70.693 -173.251)"/><path class="f" d="M108.783,303.311l-10.829,11.8,11-30.133Z" transform="translate(-52.853 -189.485)"/><path class="e" d="M100.663,342.074l16.568-45.937L106.853,267.2,85.361,337.643Z" transform="translate(-61.094 -201.117)"/><path class="l" d="M129.433,423.013l14.07,1.163,5.851,5.128,15.093,4.323,2.244,6.073-38.627-.12Z" transform="translate(-33.147 -99.143)"/><path class="l" d="M114.705,423.878l-13.583-1.123L99.753,441.1h21.518Z" transform="translate(-51.676 -99.312)"/><path class="l" d="M160.058,251.126a8.913,8.913,0,0,0-4.533-7.882l-18.571-10.476a21.953,21.953,0,0,0-12.139-1.922h0a19.32,19.32,0,0,0-16.351,14.685l-1.924,8.07,10.921,6.7,6.459,5.67L119.4,272.7a20.471,20.471,0,0,0,1.734,25.07l3.921-19.124,16.705-19.14,18.181.551Z" transform="translate(-47.233 -225.023)"/><path class="k" d="M155.625,247.921,115.632,271.55l-2.5-5.364,16.781-29.9-6.206-9.025,10.327,1.4a18.408,18.408,0,0,1,12.081,6.972Z" transform="translate(-42.921 -227.257)"/><path class="h" d="M130.215,239.267l-5.221,12.017,11.88-.48L115.062,263.69,114,261.414Z" transform="translate(-42.351 -219.397)"/></g></g></g></svg>