<svg xmlns="http://www.w3.org/2000/svg" width="14" height="12.444" viewBox="0 0 14 12.444">
  <path id="driving" d="M15.382,5.786A1.162,1.162,0,0,0,14.278,5H5.722a1.17,1.17,0,0,0-1.1.786L3,10.444v6.222a.78.78,0,0,0,.778.778h.778a.78.78,0,0,0,.778-.778v-.778h9.333v.778a.78.78,0,0,0,.778.778h.778A.78.78,0,0,0,17,16.667V10.444Zm-9.66,7.77a1.167,1.167,0,1,1,1.167-1.167A1.165,1.165,0,0,1,5.722,13.556Zm8.556,0a1.167,1.167,0,1,1,1.167-1.167A1.165,1.165,0,0,1,14.278,13.556ZM4.556,9.667l1.167-3.5h8.556l1.167,3.5Z" transform="translate(-3 -5)" fill="#f17b48"/>
</svg>
