<svg xmlns="http://www.w3.org/2000/svg" xmlns:xlink="http://www.w3.org/1999/xlink" width="375" height="314.009" viewBox="0 0 375 314.009">
  <defs>
    <linearGradient id="linear-gradient" x1="0.5" y1="-0.302" x2="0.5" y2="1.189" gradientUnits="objectBoundingBox">
      <stop offset="0" stop-color="#009cdc"/>
      <stop offset="1" stop-color="#1764af"/>
    </linearGradient>
    <linearGradient id="linear-gradient-2" x1="0.5" y1="-0.33" x2="0.5" y2="1.209" xlink:href="#linear-gradient"/>
    <linearGradient id="linear-gradient-3" x1="0.5" y1="-0.816" x2="0.5" y2="1.264" xlink:href="#linear-gradient"/>
    <linearGradient id="linear-gradient-5" x1="0.5" y1="-0.801" x2="0.5" y2="1.283" xlink:href="#linear-gradient"/>
    <linearGradient id="linear-gradient-6" x1="0.5" y1="-0.158" x2="0.5" y2="1.088" xlink:href="#linear-gradient"/>
    <linearGradient id="linear-gradient-7" x1="0.5" y1="-0.119" x2="0.5" y2="0.064" xlink:href="#linear-gradient"/>
    <linearGradient id="linear-gradient-8" x1="0.5" y1="-0.022" x2="0.5" y2="1.231" xlink:href="#linear-gradient"/>
  </defs>
  <g id="main-logo" transform="translate(0 -176)">
    <g id="Group_15" data-name="Group 15" transform="translate(-58.334 38.443)">
      <g id="Group_1" data-name="Group 1" transform="translate(102.524 155.614)">
        <circle id="Ellipse_1" data-name="Ellipse 1" cx="142.327" cy="142.327" r="142.327" fill="#e5e9ff"/>
      </g>
      <g id="Group_2" data-name="Group 2" transform="translate(139.395 156.495)">
        <path id="Path_1" data-name="Path 1" d="M201.554,174.36h-90.9a13.916,13.916,0,0,1-13.916-13.916h0a13.918,13.918,0,0,1,13.916-13.916h90.9a13.916,13.916,0,0,1,13.916,13.916h0A13.915,13.915,0,0,1,201.554,174.36Z" transform="translate(-96.733 -146.528)" fill="#e5e9ff"/>
      </g>
      <g id="Group_3" data-name="Group 3" transform="translate(122.017 380.306)">
        <rect id="Rectangle_1" data-name="Rectangle 1" width="80.221" height="21.807" rx="4.859" transform="translate(80.221 21.807) rotate(180)" fill="#e5e9ff"/>
      </g>
      <g id="Group_4" data-name="Group 4" transform="translate(111.785 423.297)">
        <path id="Rectangle_2" data-name="Rectangle 2" d="M3.148,0H97.535a3.149,3.149,0,0,1,3.149,3.149v7.834a3.15,3.15,0,0,1-3.15,3.15H3.149A3.149,3.149,0,0,1,0,10.985V3.148A3.148,3.148,0,0,1,3.148,0Z" transform="translate(100.685 14.134) rotate(180)" fill="#e5e9ff"/>
      </g>
      <g id="Group_5" data-name="Group 5" transform="translate(300.832 437.431)">
        <path id="Rectangle_3" data-name="Rectangle 3" d="M3.148,0H24.192A3.148,3.148,0,0,1,27.34,3.148v7.835a3.15,3.15,0,0,1-3.15,3.15H3.149A3.149,3.149,0,0,1,0,10.985V3.148A3.148,3.148,0,0,1,3.148,0Z" transform="translate(27.34 14.134) rotate(180)" fill="#e5e9ff"/>
      </g>
      <g id="Group_6" data-name="Group 6" transform="translate(223.728 395.626)">
        <path id="Path_2" data-name="Path 2" d="M148.274,259.8H278.606A11.59,11.59,0,0,1,290.2,271.4h0a11.589,11.589,0,0,1-11.592,11.59H148.274a11.589,11.589,0,0,1-11.592-11.59h0A11.591,11.591,0,0,1,148.274,259.8Z" transform="translate(-136.682 -259.805)" fill="#e5e9ff"/>
      </g>
      <g id="Group_7" data-name="Group 7" transform="translate(142.99 401.957)">
        <path id="Path_3" data-name="Path 3" d="M98.436,262.8h40.7a10.959,10.959,0,0,0-7.712,3.268,9.989,9.989,0,0,0-3.2,7.327,10.582,10.582,0,0,0,10.91,10.515h-40.7a10.193,10.193,0,0,0,10.9-10.342A10.783,10.783,0,0,0,98.436,262.8Z" transform="translate(-98.436 -262.804)" fill="#e5e9ff"/>
      </g>
      <g id="Group_8" data-name="Group 8" transform="translate(282.955 277.645)">
        <path id="Path_4" data-name="Path 4" d="M184.322,203.917H289.246A19.585,19.585,0,0,1,308.83,223.5h0a19.586,19.586,0,0,1-19.584,19.586H184.322A19.586,19.586,0,0,1,164.738,223.5h0A19.585,19.585,0,0,1,184.322,203.917Z" transform="translate(-164.738 -203.917)" fill="#e5e9ff"/>
      </g>
      <g id="Group_9" data-name="Group 9" transform="translate(252.485 354.433)">
        <path id="Path_5" data-name="Path 5" d="M163,240.292H318.46a12.7,12.7,0,0,1,12.694,12.7h0a12.694,12.694,0,0,1-12.694,12.691H163A12.693,12.693,0,0,1,150.3,252.988h0A12.7,12.7,0,0,1,163,240.292Z" transform="translate(-150.304 -240.292)" fill="#e5e9ff"/>
      </g>
      <g id="Group_10" data-name="Group 10" transform="translate(333.495 316.756)">
        <path id="Path_6" data-name="Path 6" d="M188.679,222.444h73.1a19.479,19.479,0,0,0-13.846,5.662,17.9,17.9,0,0,0-5.748,13.15c0,10.819,8.78,18.866,19.595,18.866h-73.1c5.4,0,10.3-1.526,13.846-5.047a18.586,18.586,0,0,0,5.731-13.449A19.228,19.228,0,0,0,188.679,222.444Z" transform="translate(-188.679 -222.444)" fill="#e5e9ff"/>
      </g>
      <g id="Group_11" data-name="Group 11" transform="translate(71.104 218.83)">
        <path id="Path_7" data-name="Path 7" d="M208.123,217.643H85.174A20.79,20.79,0,0,1,64.383,196.85h0a20.792,20.792,0,0,1,20.791-20.794H208.123a20.794,20.794,0,0,1,20.794,20.794h0A20.792,20.792,0,0,1,208.123,217.643Z" transform="translate(-64.383 -176.056)" fill="#e5e9ff"/>
      </g>
      <g id="Group_12" data-name="Group 12" transform="translate(58.334 317.539)">
        <path id="Path_8" data-name="Path 8" d="M266.052,282.914H88.382a30.049,30.049,0,0,1-30.048-30.048h0a30.049,30.049,0,0,1,30.048-30.05h177.67a30.049,30.049,0,0,1,30.048,30.05h0A30.049,30.049,0,0,1,266.052,282.914Z" transform="translate(-58.334 -222.815)" fill="#e5e9ff"/>
      </g>
      <g id="Group_13" data-name="Group 13" transform="translate(251.906 179.841)">
        <path id="Path_9" data-name="Path 9" d="M264.709,190.766H166.621a16.591,16.591,0,0,1-16.591-16.593h0a16.588,16.588,0,0,1,16.591-16.586h98.089A16.588,16.588,0,0,1,281.3,174.173h0A16.59,16.59,0,0,1,264.709,190.766Z" transform="translate(-150.03 -157.587)" fill="#e5e9ff"/>
      </g>
      <g id="Group_14" data-name="Group 14" transform="translate(304.091 137.557)">
        <rect id="Rectangle_4" data-name="Rectangle 4" width="41.349" height="18.057" rx="4.276" transform="translate(0)" fill="#e5e9ff"/>
      </g>
    </g>
    <g id="Group_34" data-name="Group 34" transform="translate(57.545 199.587)">
      <g id="Group_25" data-name="Group 25" transform="translate(124.398 158.796)">
        <path id="Path_79" data-name="Path 79" d="M172.39,224.367a8.454,8.454,0,0,1,.54-3.266,4.614,4.614,0,0,1,1.583-2.022,6.282,6.282,0,0,1,2.524-1.017,18.393,18.393,0,0,1,3.367-.277h6.558a25.528,25.528,0,0,1,4.748.352,5.837,5.837,0,0,1,2.713,1.155,3.714,3.714,0,0,1,1.2,2.111,14.936,14.936,0,0,1,.252,3.24H190.3v-.5a1.356,1.356,0,0,0-.679-1.332,4.28,4.28,0,0,0-1.934-.352h-6.08a5.243,5.243,0,0,0-1.784.251,2.343,2.343,0,0,0-1.054.73,2.685,2.685,0,0,0-.515,1.142,7.485,7.485,0,0,0-.139,1.519v1.96a9.72,9.72,0,0,0,.126,1.685,2.389,2.389,0,0,0,.478,1.13,2.009,2.009,0,0,0,.979.628,5.323,5.323,0,0,0,1.607.2h5.955a13.275,13.275,0,0,0,1.558-.075,2.19,2.19,0,0,0,1-.338,1.451,1.451,0,0,0,.54-.755,4.416,4.416,0,0,0,.163-1.343h5.577V230.9a8.361,8.361,0,0,1-.263,2.148,3.843,3.843,0,0,1-.993,1.734,4.95,4.95,0,0,1-2.036,1.168,11.28,11.28,0,0,1-3.416.426H180.4a18.459,18.459,0,0,1-3.367-.276,6.283,6.283,0,0,1-2.524-1.017,4.625,4.625,0,0,1-1.583-2.01,8.431,8.431,0,0,1-.54-3.279Z" transform="translate(-172.39 -217.784)" fill="#e0e1e3"/>
        <path id="Path_80" data-name="Path 80" d="M212.745,218.084h5.576V231.6h12.537v4.673H212.745Z" transform="translate(-185.661 -217.883)" fill="#e0e1e3"/>
        <path id="Path_81" data-name="Path 81" d="M243.7,218.084h5.577v18.189H243.7Z" transform="translate(-195.842 -217.883)" fill="#e0e1e3"/>
        <path id="Path_82" data-name="Path 82" d="M257.478,224.367a8.454,8.454,0,0,1,.54-3.266,4.609,4.609,0,0,1,1.583-2.022,6.282,6.282,0,0,1,2.524-1.017,18.394,18.394,0,0,1,3.367-.277h6.558a25.528,25.528,0,0,1,4.748.352,5.83,5.83,0,0,1,2.713,1.155,3.711,3.711,0,0,1,1.205,2.111,15.02,15.02,0,0,1,.252,3.24h-5.577v-.5a1.356,1.356,0,0,0-.679-1.332,4.28,4.28,0,0,0-1.934-.352H266.7a5.24,5.24,0,0,0-1.784.251,2.336,2.336,0,0,0-1.054.73,2.676,2.676,0,0,0-.515,1.142,7.482,7.482,0,0,0-.14,1.519v1.96a9.716,9.716,0,0,0,.127,1.685,2.4,2.4,0,0,0,.477,1.13,2.015,2.015,0,0,0,.979.628,5.33,5.33,0,0,0,1.608.2h5.955a13.274,13.274,0,0,0,1.558-.075,2.19,2.19,0,0,0,1-.338,1.45,1.45,0,0,0,.54-.755,4.413,4.413,0,0,0,.164-1.343h5.577V230.9a8.392,8.392,0,0,1-.263,2.148,3.85,3.85,0,0,1-.993,1.734,4.959,4.959,0,0,1-2.036,1.168,11.282,11.282,0,0,1-3.417.426h-8.993a18.46,18.46,0,0,1-3.367-.276,6.282,6.282,0,0,1-2.524-1.017,4.62,4.62,0,0,1-1.583-2.01,8.431,8.431,0,0,1-.54-3.279Z" transform="translate(-200.372 -217.784)" fill="#e0e1e3"/>
        <path id="Path_83" data-name="Path 83" d="M297.832,218.084h5.577v6.683h2.614l7.034-6.683h7.588l-9.849,8.893,11,9.3h-7.889l-8.04-6.984h-2.462v6.984h-5.577Z" transform="translate(-213.643 -217.883)" fill="#e0e1e3"/>
      </g>
      <path id="Path_84" data-name="Path 84" d="M122.475,274.335a14.827,14.827,0,0,1-14.8,14.8H105.1a14.814,14.814,0,0,1-14.8-14.783V237.7a14.814,14.814,0,0,1,14.8-14.781h2.567a14.827,14.827,0,0,1,14.8,14.8v10.164h-9.869V242q0-10.2-6.509-10.2-5.927,0-5.926,8.256V271.7q0,8.259,6.415,8.256,6.018,0,6.02-8.291v-8.585h9.869Z" transform="translate(-20.997 -60.677)" fill="#e0e1e3"/>
      <path id="Path_85" data-name="Path 85" d="M156.883,224.78v64.05H146.62V224.682Z" transform="translate(-39.518 -61.257)" fill="#e0e1e3"/>
      <path id="Path_86" data-name="Path 86" d="M202.466,283.523a14.828,14.828,0,0,1-14.8,14.8H185.1a14.811,14.811,0,0,1-14.8-14.772V265.629a14.809,14.809,0,0,1,14.8-14.772h2.566a14.827,14.827,0,0,1,14.8,14.8v13.619H180.161v1.661q0,4.69,2.056,6.5t6.757,1.808q2.642,0,3.623-5.725ZM192.6,271.088v-3.132q0-8.218-6.415-8.219-6.021,0-6.021,8.29v3.06Z" transform="translate(-47.303 -69.865)" fill="#e0e1e3"/>
      <path id="Path_87" data-name="Path 87" d="M259.141,297.438h-9.87v-3.356q-.2,4.245-8.487,4.244a16.367,16.367,0,0,1-10.362-3.738q-5.133-4.031-5.132-9.54a14.69,14.69,0,0,1,1.974-7.132,17.845,17.845,0,0,1,4.836-5.753,15.35,15.35,0,0,1,9.178-2.557,19.632,19.632,0,0,1,7.994,1.381v-2.663q0-8.291-6.415-8.29a5.4,5.4,0,0,0-4.144,1.479,13.456,13.456,0,0,0-1.974,4.146h-9.77a14.91,14.91,0,0,1,14.8-14.8h2.567a14.827,14.827,0,0,1,14.8,14.8Zm-9.87-13.769a5.833,5.833,0,0,0-2.121-4.454,6.976,6.976,0,0,0-4.787-1.91,8.1,8.1,0,0,0-5.132,2.105,6.01,6.01,0,0,0-2.566,4.652,4.883,4.883,0,0,0,2.665,4.211,8.961,8.961,0,0,0,5.033,1.566,7.171,7.171,0,0,0,4.787-1.812A5.542,5.542,0,0,0,249.271,283.669Z" transform="translate(-65.389 -69.865)" fill="#e0e1e3"/>
      <path id="Path_88" data-name="Path 88" d="M316.379,264.422v32.629h-9.672V266.788q0-8.225-6.57-8.226-6.062,0-5.963,5.581l.3,32.907H284.107V249.679l10.067.1v2.468q2.257-2.567,8.45-2.567a12.646,12.646,0,0,1,9.923,4.326A15.176,15.176,0,0,1,316.379,264.422Z" transform="translate(-84.732 -69.477)" fill="#e0e1e3"/>
      <g id="Group_29" data-name="Group 29" transform="translate(77.458 39.144)">
        <g id="Group_26" data-name="Group 26">
          <rect id="Rectangle_9" data-name="Rectangle 9" width="113.152" height="113.152" rx="4" fill="#e0e1e3"/>
          <path id="Path_89" data-name="Path 89" d="M215.6,45.876a6.393,6.393,0,0,0-6.374-6.374h-100.4a6.393,6.393,0,0,0-6.374,6.374v80.809c19.233-2.827,41.011-10.459,62.353-22.781,21.279-12.285,38.737-27.276,50.8-42.473Z" transform="translate(-102.45 -39.502)" fill="#e0e1e3"/>
        </g>
        <g id="Group_27" data-name="Group 27" transform="translate(6.664 3.924)">
          <path id="Path_90" data-name="Path 90" d="M165.409,133.936q13.485,0,25.6-12.721h21.917a47.27,47.27,0,0,1-18.7,21.994,51.761,51.761,0,0,1-28.507,8.353q-21.92,0-37.627-15.786t-15.71-37.7q0-21.611,15.557-37.167a50.9,50.9,0,0,1,37.319-15.556q22.221,0,38.317,16.246a47.644,47.644,0,0,1,9.962,15.019H192.077q-6.591-7.661-13.717-10.652a35.418,35.418,0,0,0-13.717-2.989q-13.49,0-23.374,10.576a36.013,36.013,0,0,0,.23,49.811Q151.615,133.936,165.409,133.936Z" transform="translate(-112.379 -45.348)" fill="#e0e1e3"/>
        </g>
        <g id="Group_28" data-name="Group 28" transform="translate(31.839 25.858)">
          <path id="Path_91" data-name="Path 91" d="M192.173,123.821a21.14,21.14,0,0,0,.135-29.238,18.18,18.18,0,0,0-13.72-6.208,20.793,20.793,0,0,0-8.051,1.754,22.218,22.218,0,0,0-8.052,6.253H149.89a27.955,27.955,0,0,1,5.848-8.816,30.573,30.573,0,0,1,22.491-9.536,31.178,31.178,0,0,1,31.037,30.948,31.24,31.24,0,0,1-48.041,26.495,27.744,27.744,0,0,1-10.976-12.91h12.864q7.108,7.469,15.024,7.467A18.789,18.789,0,0,0,192.173,123.821Z" transform="translate(-149.89 -78.03)" fill="#e0e1e3"/>
        </g>
        <circle id="Ellipse_4" data-name="Ellipse 4" cx="8.638" cy="8.638" r="8.638" transform="translate(51.487 49.411)" fill="#e0e1e3"/>
        <path id="Path_92" data-name="Path 92" d="M186.819,131.424a10.647,10.647,0,1,1,10.646-10.646A10.659,10.659,0,0,1,186.819,131.424Zm0-20.221a9.575,9.575,0,1,0,9.575,9.575A9.586,9.586,0,0,0,186.819,111.2Z" transform="translate(-126.694 -62.729)" fill="#e0e1e3"/>
        <path id="Path_93" data-name="Path 93" d="M193.23,139.915h-8.582l.081-.646a5.269,5.269,0,0,0-1.193-3.423l-.158-.254c-.723-1.164-1.57-2.295-2.389-3.387-.351-.469-.7-.939-1.047-1.413-.058-.081-.12-.158-.182-.237-.1-.127-.2-.253-.291-.387a1.726,1.726,0,1,1,2.747-2.091c.346.412.679.832,1.011,1.256v-2.04q0-4.059,0-8.117a1.859,1.859,0,0,1,1.242-1.979,1.626,1.626,0,0,1,1.466.225,1.937,1.937,0,0,1,.746,1.589q.008,2.243,0,4.485v.08a1.752,1.752,0,0,1,.774-.179h.021a1.61,1.61,0,0,1,1.628,1.252,1.855,1.855,0,0,1,.872-.195,1.652,1.652,0,0,1,1.587,1.159,1.69,1.69,0,0,1,2.04.226,1.845,1.845,0,0,1,.547,1.319,46,46,0,0,1-.47,8.891c-.134.73-.205,1.469-.282,2.25-.036.366-.072.735-.114,1.107Zm-7.33-1.149h6.3q.03-.29.057-.578c.075-.771.154-1.569.3-2.345a45.259,45.259,0,0,0,.452-8.67.7.7,0,0,0-.2-.506.566.566,0,0,0-.376-.146c-.332.007-.571.29-.6.7l-.215,4.652-.948-3.9a6.611,6.611,0,0,1-.146-1.442l-.01-.323a.555.555,0,0,0-.557-.611c-.232.006-.509.056-.574.546-.028.215-.037.436-.048.685l-.128,2.187-1.052-1.64-.092-.328-.007-.671c0-.372-.007-.744-.017-1.117-.02-.727-.431-.722-.571-.719-.364,0-.556.254-.57.74-.009.283-.007.563,0,.845l0,.983-1.306-.011-.038-.754c-.009-.154-.017-.306-.019-.46v-2.395q0-2.239,0-4.479a.823.823,0,0,0-.275-.666.485.485,0,0,0-.446-.056c-.239.075-.438.193-.436.881q.007,4.06,0,8.12v5.256l-1.891-2.3c-.378-.483-.756-.965-1.149-1.434a.6.6,0,0,0-.87-.14.592.592,0,0,0-.044.85c.074.109.157.214.239.317s.142.181.209.274c.342.47.689.934,1.038,1.4.834,1.113,1.7,2.263,2.445,3.47l.156.249A7.118,7.118,0,0,1,185.9,138.766Z" transform="translate(-127.663 -65.026)" fill="#e0e1e3"/>
        <path id="Path_94" data-name="Path 94" d="M192.82,139.249H185.9c.185-1.471-.627-2.638-1.336-3.779-.973-1.566-2.14-3.011-3.225-4.507-.14-.192-.3-.37-.43-.566a1.079,1.079,0,0,1,.149-1.508,1.1,1.1,0,0,1,1.558.2c.54.644,1.049,1.313,1.572,1.971.063.08.131.157.317.38v-.9q0-5.047,0-10.094c0-.611.138-1.132.783-1.334.728-.229,1.364.321,1.367,1.183.009,2.136,0,4.272,0,6.407,0,.2.017.4.028.6h.171c0-.391-.009-.783,0-1.174.023-.749.428-1.2,1.063-1.21s1.054.434,1.074,1.191c.015.56.013,1.121.021,1.681,0,.018.021.036.1.155.025-.418.027-.745.068-1.067a1,1,0,0,1,1.075-.974,1.042,1.042,0,0,1,1.047,1.083,7.521,7.521,0,0,0,.13,1.54c.009-.2.015-.409.029-.613a1.143,1.143,0,0,1,1.079-1.156,1.083,1.083,0,0,1,1.082,1.137,42.366,42.366,0,0,1-.429,8.187C193.007,137.114,192.945,138.167,192.82,139.249Z" transform="translate(-128.175 -65.665)" fill="#e0e1e3"/>
      </g>
      <g id="Group_30" data-name="Group 30" transform="translate(122.937 158.065)">
        <path id="Path_95" data-name="Path 95" d="M170.214,223.278a8.453,8.453,0,0,1,.54-3.266,4.6,4.6,0,0,1,1.583-2.022,6.288,6.288,0,0,1,2.524-1.018,18.44,18.44,0,0,1,3.366-.277h6.558a25.51,25.51,0,0,1,4.748.353,5.83,5.83,0,0,1,2.713,1.155,3.715,3.715,0,0,1,1.205,2.111,15.021,15.021,0,0,1,.252,3.24h-5.577v-.5a1.359,1.359,0,0,0-.679-1.332,4.291,4.291,0,0,0-1.934-.352h-6.081a5.235,5.235,0,0,0-1.783.252,2.345,2.345,0,0,0-1.055.729,2.678,2.678,0,0,0-.514,1.143,7.482,7.482,0,0,0-.14,1.519v1.96a9.717,9.717,0,0,0,.127,1.685,2.4,2.4,0,0,0,.477,1.13,2.009,2.009,0,0,0,.979.628,5.348,5.348,0,0,0,1.607.2h5.955a13.089,13.089,0,0,0,1.558-.076,2.177,2.177,0,0,0,1-.338,1.446,1.446,0,0,0,.54-.754,4.413,4.413,0,0,0,.164-1.343h5.576v1.708a8.4,8.4,0,0,1-.262,2.148,3.845,3.845,0,0,1-.994,1.734,4.951,4.951,0,0,1-2.035,1.168,11.257,11.257,0,0,1-3.417.427h-8.994a18.447,18.447,0,0,1-3.366-.276,6.288,6.288,0,0,1-2.524-1.018,4.609,4.609,0,0,1-1.583-2.009,8.431,8.431,0,0,1-.54-3.278Z" transform="translate(-170.214 -216.695)" fill="#e46815"/>
        <path id="Path_96" data-name="Path 96" d="M210.568,217h5.577v13.516h12.537v4.673H210.568Z" transform="translate(-183.485 -216.794)" fill="#e46815"/>
        <path id="Path_97" data-name="Path 97" d="M241.526,217H247.1v18.189h-5.577Z" transform="translate(-193.666 -216.794)" fill="#e46815"/>
        <path id="Path_98" data-name="Path 98" d="M255.3,223.278a8.467,8.467,0,0,1,.54-3.266,4.6,4.6,0,0,1,1.584-2.022,6.288,6.288,0,0,1,2.524-1.018,18.44,18.44,0,0,1,3.366-.277h6.558a25.509,25.509,0,0,1,4.748.353,5.83,5.83,0,0,1,2.713,1.155,3.714,3.714,0,0,1,1.205,2.111,15.023,15.023,0,0,1,.252,3.24h-5.577v-.5a1.359,1.359,0,0,0-.679-1.332,4.293,4.293,0,0,0-1.935-.352h-6.08a5.242,5.242,0,0,0-1.784.252,2.347,2.347,0,0,0-1.054.729,2.687,2.687,0,0,0-.515,1.143,7.534,7.534,0,0,0-.139,1.519v1.96a9.72,9.72,0,0,0,.126,1.685,2.392,2.392,0,0,0,.478,1.13,2.009,2.009,0,0,0,.979.628,5.348,5.348,0,0,0,1.607.2h5.955a13.1,13.1,0,0,0,1.558-.076,2.18,2.18,0,0,0,1-.338,1.446,1.446,0,0,0,.54-.754,4.413,4.413,0,0,0,.164-1.343h5.577v1.708a8.365,8.365,0,0,1-.263,2.148,3.844,3.844,0,0,1-.993,1.734,4.951,4.951,0,0,1-2.035,1.168,11.26,11.26,0,0,1-3.417.427h-8.994a18.448,18.448,0,0,1-3.366-.276,6.288,6.288,0,0,1-2.524-1.018,4.615,4.615,0,0,1-1.584-2.009,8.445,8.445,0,0,1-.54-3.278Z" transform="translate(-198.196 -216.695)" fill="#e46815"/>
        <path id="Path_99" data-name="Path 99" d="M295.656,217h5.577v6.683h2.613L310.88,217h7.589l-9.85,8.893,11,9.3h-7.889l-8.04-6.984h-2.461v6.984h-5.577Z" transform="translate(-211.467 -216.794)" fill="#e46815"/>
      </g>
      <path id="Path_100" data-name="Path 100" d="M120.3,273.247a14.827,14.827,0,0,1-14.8,14.8h-2.566a14.815,14.815,0,0,1-14.8-14.782V236.611a14.815,14.815,0,0,1,14.8-14.781H105.5a14.827,14.827,0,0,1,14.8,14.8V246.8H110.43v-5.885q0-10.2-6.509-10.2-5.927,0-5.927,8.256v31.648q0,8.259,6.415,8.256,6.018,0,6.021-8.291V262H120.3Z" transform="translate(-20.281 -60.319)" fill="url(#linear-gradient)"/>
      <path id="Path_101" data-name="Path 101" d="M154.706,223.692v64.05H144.443V223.594Z" transform="translate(-38.802 -60.899)" fill="url(#linear-gradient-2)"/>
      <path id="Path_102" data-name="Path 102" d="M200.289,282.434a14.825,14.825,0,0,1-14.8,14.8h-2.567a14.808,14.808,0,0,1-14.8-14.772V264.54a14.809,14.809,0,0,1,14.8-14.772h2.567a14.827,14.827,0,0,1,14.8,14.8V278.19h-22.3v1.662q0,4.69,2.056,6.5t6.756,1.808q2.642,0,3.623-5.725ZM190.42,270v-3.131q0-8.218-6.415-8.219-6.02,0-6.02,8.29V270Z" transform="translate(-46.587 -69.507)" fill="url(#linear-gradient-3)"/>
      <path id="Path_103" data-name="Path 103" d="M256.964,296.35h-9.869v-3.356q-.2,4.244-8.488,4.244a16.369,16.369,0,0,1-10.362-3.738q-5.133-4.032-5.132-9.54a14.69,14.69,0,0,1,1.974-7.132,17.853,17.853,0,0,1,4.835-5.754,15.351,15.351,0,0,1,9.178-2.556,19.638,19.638,0,0,1,7.995,1.381v-2.663q0-8.291-6.415-8.291a5.4,5.4,0,0,0-4.144,1.48,13.455,13.455,0,0,0-1.974,4.146h-9.77a14.911,14.911,0,0,1,14.8-14.8h2.566a14.828,14.828,0,0,1,14.8,14.8Zm-9.869-13.769a5.834,5.834,0,0,0-2.122-4.454,6.976,6.976,0,0,0-4.787-1.91,8.1,8.1,0,0,0-5.132,2.1,6.01,6.01,0,0,0-2.565,4.652,4.883,4.883,0,0,0,2.664,4.211,8.962,8.962,0,0,0,5.033,1.566,7.171,7.171,0,0,0,4.787-1.812A5.543,5.543,0,0,0,247.095,282.581Z" transform="translate(-64.673 -69.507)" fill="url(#linear-gradient-3)"/>
      <path id="Path_104" data-name="Path 104" d="M61.778,297.438H51.909v-3.356q-.2,4.245-8.487,4.244a16.367,16.367,0,0,1-10.362-3.738q-5.134-4.031-5.132-9.54a14.69,14.69,0,0,1,1.974-7.132,17.845,17.845,0,0,1,4.836-5.753,15.35,15.35,0,0,1,9.178-2.557,19.634,19.634,0,0,1,7.994,1.381v-2.663q0-8.291-6.415-8.29a5.4,5.4,0,0,0-4.144,1.479,13.456,13.456,0,0,0-1.974,4.146h-9.77A14.18,14.18,0,0,1,34,255.2a14.31,14.31,0,0,1,10.411-4.342h2.567a14.825,14.825,0,0,1,14.8,14.8Zm-9.869-13.769a5.833,5.833,0,0,0-2.121-4.454A6.977,6.977,0,0,0,45,277.3a8.1,8.1,0,0,0-5.132,2.105,6.01,6.01,0,0,0-2.566,4.652,4.883,4.883,0,0,0,2.665,4.211A8.96,8.96,0,0,0,45,289.839a7.171,7.171,0,0,0,4.787-1.812A5.542,5.542,0,0,0,51.909,283.669Z" transform="translate(-0.484 -69.865)" fill="#e0e1e3"/>
      <path id="Path_105" data-name="Path 105" d="M314.2,263.333v32.629h-9.672V265.7q0-8.225-6.57-8.226-6.063,0-5.964,5.581l.3,32.908H281.931V248.591l10.066.1v2.467q2.258-2.566,8.451-2.566a12.642,12.642,0,0,1,9.923,4.326A15.173,15.173,0,0,1,314.2,263.333Z" transform="translate(-84.016 -69.119)" fill="url(#linear-gradient-5)"/>
      <g id="Group_31" data-name="Group 31" transform="translate(75.997 38.413)">
        <rect id="Rectangle_10" data-name="Rectangle 10" width="113.152" height="113.152" rx="4" transform="translate(0 0)" fill="url(#linear-gradient-6)"/>
        <path id="Path_106" data-name="Path 106" d="M213.425,44.788a6.394,6.394,0,0,0-6.375-6.375h-100.4a6.394,6.394,0,0,0-6.375,6.375V125.6c19.233-2.827,41.011-10.459,62.353-22.781,21.279-12.285,38.738-27.276,50.8-42.473Z" transform="translate(-100.273 -38.413)" fill="url(#linear-gradient-7)"/>
      </g>
      <g id="Group_407" data-name="Group 407">
        <g id="Group_32" data-name="Group 32" transform="translate(82.661 42.337)">
          <path id="Path_107" data-name="Path 107" d="M163.233,132.848q13.485,0,25.6-12.721h21.917a47.265,47.265,0,0,1-18.7,21.994,51.761,51.761,0,0,1-28.507,8.353q-21.919,0-37.627-15.787t-15.71-37.7q0-21.611,15.557-37.168a50.9,50.9,0,0,1,37.32-15.556q22.221,0,38.317,16.246a47.678,47.678,0,0,1,9.962,15.02H189.9q-6.591-7.661-13.717-10.652a35.413,35.413,0,0,0-13.717-2.989q-13.489,0-23.374,10.576a36.015,36.015,0,0,0,.23,49.811Q149.438,132.847,163.233,132.848Z" transform="translate(-110.202 -44.26)" fill="#fff"/>
        </g>
        <circle id="Ellipse_5" data-name="Ellipse 5" cx="10.678" cy="10.678" r="10.678" transform="translate(125.444 84.89)" fill="#fff"/>
        <path id="Path_108" data-name="Path 108" d="M183.41,130.287a13.161,13.161,0,1,1,13.162-13.161A13.176,13.176,0,0,1,183.41,130.287Zm0-25a11.837,11.837,0,1,0,11.837,11.838A11.851,11.851,0,0,0,183.41,105.288Z" transform="translate(-47.288 -21.557)" fill="#fff"/>
        <path id="Path_109" data-name="Path 109" d="M191.336,140.782H180.727l.1-.8c.2-1.564-.616-2.86-1.474-4.232l-.2-.313c-.9-1.44-1.941-2.836-2.954-4.187-.434-.58-.869-1.161-1.294-1.746-.072-.1-.148-.2-.225-.293-.125-.157-.248-.313-.359-.479a2.133,2.133,0,1,1,3.4-2.584c.428.509.84,1.029,1.25,1.553v-2.521q0-5.018,0-10.036a2.3,2.3,0,0,1,1.535-2.446,2.012,2.012,0,0,1,1.813.278,2.4,2.4,0,0,1,.922,1.965q.01,2.771,0,5.544v.1a2.177,2.177,0,0,1,.957-.221h.026a1.99,1.99,0,0,1,2.013,1.548,2.293,2.293,0,0,1,1.078-.24,2.042,2.042,0,0,1,1.962,1.433,2.09,2.09,0,0,1,2.522.279,2.275,2.275,0,0,1,.677,1.63A56.867,56.867,0,0,1,191.9,136c-.165.9-.254,1.815-.348,2.781-.045.452-.089.909-.142,1.369Zm-9.062-1.42h7.791c.025-.238.048-.477.071-.714.093-.953.19-1.94.364-2.9a55.9,55.9,0,0,0,.559-10.717.866.866,0,0,0-.243-.625.7.7,0,0,0-.464-.181c-.411.008-.706.358-.74.868l-.264,5.75-1.172-4.815a8.122,8.122,0,0,1-.18-1.783l-.013-.4a.686.686,0,0,0-.689-.754c-.286.007-.63.069-.709.674-.035.266-.046.538-.06.846l-.158,2.7-1.3-2.028-.114-.4-.008-.83c0-.46-.009-.919-.021-1.381-.025-.9-.533-.893-.706-.889-.451.005-.688.313-.706.915-.011.349-.008.7-.005,1.044l0,1.215-1.615-.013-.047-.932c-.011-.19-.022-.379-.023-.569v-2.96q0-2.768,0-5.536a1.017,1.017,0,0,0-.34-.824.6.6,0,0,0-.55-.07c-.3.093-.541.238-.54,1.089q.008,5.019,0,10.038v6.5l-2.338-2.845c-.467-.6-.934-1.193-1.42-1.773a.747.747,0,0,0-1.075-.173.732.732,0,0,0-.055,1.05c.091.136.194.264.3.393.089.112.176.223.259.338.422.581.852,1.155,1.283,1.73,1.031,1.376,2.1,2.8,3.023,4.29l.193.308A8.8,8.8,0,0,1,182.274,139.362Z" transform="translate(-48.486 -24.396)" fill="url(#linear-gradient-8)"/>
        <path id="Path_110" data-name="Path 110" d="M190.829,139.96h-8.553c.228-1.819-.776-3.262-1.652-4.671-1.2-1.936-2.645-3.723-3.987-5.572-.172-.237-.368-.458-.532-.7a1.334,1.334,0,0,1,.184-1.864,1.352,1.352,0,0,1,1.926.251c.668.8,1.3,1.623,1.943,2.436.079.1.162.194.393.47v-1.115q0-6.24,0-12.478c0-.754.171-1.4.968-1.648.9-.283,1.685.4,1.69,1.463.011,2.64,0,5.281,0,7.921,0,.247.023.495.034.742h.212c0-.484-.012-.968,0-1.452.027-.926.528-1.488,1.314-1.5.8-.008,1.3.536,1.328,1.474.019.692.017,1.385.027,2.078,0,.023.026.045.119.192.032-.517.034-.921.085-1.319a1.239,1.239,0,0,1,1.33-1.2,1.289,1.289,0,0,1,1.294,1.34,9.331,9.331,0,0,0,.16,1.9c.011-.253.019-.506.036-.758a1.412,1.412,0,0,1,1.334-1.429,1.339,1.339,0,0,1,1.338,1.405,52.3,52.3,0,0,1-.531,10.121C191.06,137.32,190.983,138.622,190.829,139.96Z" transform="translate(-49.119 -25.187)" fill="#fff"/>
        <g id="Group_33" data-name="Group 33" transform="translate(107.836 64.271)">
          <path id="Path_111" data-name="Path 111" d="M190,122.733a21.14,21.14,0,0,0,.135-29.238,18.181,18.181,0,0,0-13.72-6.208,20.787,20.787,0,0,0-8.052,1.754,22.222,22.222,0,0,0-8.052,6.253h-12.6a27.981,27.981,0,0,1,5.848-8.817,30.578,30.578,0,0,1,22.491-9.536,31.179,31.179,0,0,1,31.037,30.948,31.239,31.239,0,0,1-48.041,26.494,27.743,27.743,0,0,1-10.976-12.909h12.865q7.107,7.468,15.024,7.467A18.79,18.79,0,0,0,190,122.733Z" transform="translate(-147.713 -76.941)" fill="#fff"/>
        </g>
      </g>
      <path id="Path_112" data-name="Path 112" d="M55.551,254.11a13.965,13.965,0,0,0-10.314-4.342H42.706A14.01,14.01,0,0,0,32.44,254.11a14.279,14.279,0,0,0-4.33,10.462h9.634a13.512,13.512,0,0,1,1.946-4.146,5.286,5.286,0,0,1,4.087-1.48q6.325,0,6.325,8.291V269.9a19.12,19.12,0,0,0-7.883-1.381,14.983,14.983,0,0,0-9.05,2.556,17.789,17.789,0,0,0-4.767,5.754,14.847,14.847,0,0,0-1.947,7.132q0,5.509,5.06,9.54a16,16,0,0,0,10.217,3.738q8.175,0,8.369-4.244v3.356h9.732V264.572A14.366,14.366,0,0,0,55.551,254.11ZM41.776,287.954a5.9,5.9,0,1,1,6.261-5.89A6.084,6.084,0,0,1,41.776,287.954Z" transform="translate(0 -69.507)" fill="#e46815"/>
    </g>
  </g>
</svg>
