<svg xmlns="http://www.w3.org/2000/svg" width="15.774" height="11.042" viewBox="0 0 15.774 11.042">
  <path id="national-id" d="M14.986,4.8H.789A.788.788,0,0,0,0,5.589v9.465a.788.788,0,0,0,.789.789h14.2a.788.788,0,0,0,.789-.789V5.589a.788.788,0,0,0-.789-.789ZM10.253,7.955h3.155v.789H10.253ZM8.676,14.109a1.821,1.821,0,0,0-.417-.239c-.931-.4-2.336-.994-2.336-1.716,0-.435.283-.293.409-1.087.052-.33.3-.005.351-.758,0-.3-.137-.375-.137-.375s.07-.443.1-.786A1.69,1.69,0,0,0,5.636,7.494c-.147-.148-.245-.088.2-.325-.981-.046-1.21.467-1.732.845a1.373,1.373,0,0,0-.543,1.135c.029.342.1.786.1.786s-.138.074-.138.374c.048.752.3.428.351.758.125.8.409.653.409,1.087,0,.723-1.4,1.316-2.336,1.716a2,2,0,0,0-.372.205v-7.7h7.1Zm5.521-3H10.253v-.789H14.2Z" transform="translate(0 -4.8)" fill="#f17b48"/>
</svg>
