<svg xmlns="http://www.w3.org/2000/svg" width="18.13" height="25.416" viewBox="0 0 18.13 25.416">
  <g id="tap-allow-icon" transform="translate(-0.079 -0.001)">
    <path id="Path_1331" data-name="Path 1331" d="M.163,11.683a1.326,1.326,0,0,0,.384,1.477,24.17,24.17,0,0,1,3.294,5.787,11.908,11.908,0,0,0,2.73,3.69,2.1,2.1,0,0,1,.627,1.5v.155a1.27,1.27,0,0,0,1.27,1.27h6.775a1.27,1.27,0,0,0,1.27-1.27v-1.3a.388.388,0,0,1,.113-.288,5.812,5.812,0,0,0,1.581-3.916v-6.7a1.739,1.739,0,0,0-1.571-1.761,1.693,1.693,0,0,0-.97.231V9.9a1.684,1.684,0,0,0-2.559-1.449,1.674,1.674,0,0,0-2.523-1.28v-.7A3.345,3.345,0,0,0,12.28,3.544a3.388,3.388,0,0,0-6.776,0A3.345,3.345,0,0,0,7.2,6.466v6.818A4.685,4.685,0,0,1,7,14.76a.428.428,0,0,1-.305.285.408.408,0,0,1-.381-.1A6.019,6.019,0,0,1,5.435,13.9c-.735-1.1-2.584-3.153-3.741-3.153a1.659,1.659,0,0,0-1.53.94ZM6.351,3.544a2.541,2.541,0,1,1,5.081,0,2.515,2.515,0,0,1-.847,1.9v-1.9a1.694,1.694,0,1,0-3.388,0v1.9A2.516,2.516,0,0,1,6.351,3.544ZM4.729,14.366a6.88,6.88,0,0,0,1,1.2,1.253,1.253,0,0,0,1.168.3,1.276,1.276,0,0,0,.9-.835,5.515,5.515,0,0,0,.246-1.748V3.544a.847.847,0,0,1,1.694,0v8.893a.423.423,0,1,0,.847,0V8.625a.847.847,0,0,1,1.694,0v3.811a.423.423,0,1,0,.847,0V9.9a.847.847,0,1,1,1.694,0V12.86a.423.423,0,0,0,.847,0v-.847a.84.84,0,0,1,.249-.6.857.857,0,0,1,.661-.246.9.9,0,0,1,.785.916v6.7a5.033,5.033,0,0,1-1.306,3.291,1.236,1.236,0,0,0-.388.913v1.3a.423.423,0,0,1-.424.424H8.469a.423.423,0,0,1-.424-.424v-.155a2.956,2.956,0,0,0-.885-2.111,11.378,11.378,0,0,1-2.533-3.4,24.692,24.692,0,0,0-3.482-6.07c-.2-.2-.269-.388-.2-.554a.835.835,0,0,1,.748-.417c.576,0,2.136,1.427,3.035,2.776Zm0,0" transform="translate(0 -0.148)" fill="#f17b48"/>
    <path id="Path_1332" data-name="Path 1332" d="M314.634,302.212a.424.424,0,0,0,.424-.424v-2.541a.423.423,0,0,0-.847,0v2.541A.423.423,0,0,0,314.634,302.212Zm0,0" transform="translate(-298.543 -283.995)" fill="#f17b48"/>
    <path id="Path_1333" data-name="Path 1333" d="M306.1,385.964a.423.423,0,0,0,.3-.124,1.719,1.719,0,0,0,.548-1.146.418.418,0,0,0-.413-.417.426.426,0,0,0-.434.408.932.932,0,0,1-.3.557.423.423,0,0,0,.3.723Zm0,0" transform="translate(-290.434 -365.205)" fill="#f17b48"/>
    <path id="Path_1334" data-name="Path 1334" d="M178.1,461.8h.423a.423.423,0,1,0,0-.847H178.1a.423.423,0,1,0,0,.847Zm0,0" transform="translate(-168.784 -438.081)" fill="#f17b48"/>
    <path id="Path_1335" data-name="Path 1335" d="M220.767,461.8h2.964a.423.423,0,1,0,0-.847h-2.964a.423.423,0,0,0,0,.847Zm0,0" transform="translate(-209.334 -438.081)" fill="#f17b48"/>
    <path id="Path_1336" data-name="Path 1336" d="M76.972,7.012a.424.424,0,0,0,.309-.714A4.224,4.224,0,0,1,77.1.7a.424.424,0,1,0-.653-.539,5.072,5.072,0,0,0,.221,6.717.424.424,0,0,0,.309.133Zm0,0" transform="translate(-71.467 0)" fill="#f17b48"/>
    <path id="Path_1337" data-name="Path 1337" d="M242.164,5.89a.423.423,0,0,0,.57-.184,5.064,5.064,0,0,0-.605-5.544.423.423,0,1,0-.652.539,4.218,4.218,0,0,1,.5,4.619.423.423,0,0,0,.183.57Zm0,0" transform="translate(-229.319 0)" fill="#f17b48"/>
  </g>
</svg>
