<svg xmlns="http://www.w3.org/2000/svg" xmlns:xlink="http://www.w3.org/1999/xlink" width="43.882" height="46.076" viewBox="0 0 43.882 46.076">
  <defs>
    <linearGradient id="linear-gradient" x1="0.5" y1="-0.022" x2="0.5" y2="1.231" gradientUnits="objectBoundingBox">
      <stop offset="0" stop-color="#009cdc"/>
      <stop offset="1" stop-color="#1764af"/>
    </linearGradient>
  </defs>
  <g id="white-logo" transform="translate(-82.661 -42.337)">
    <g id="Group_32" data-name="Group 32" transform="translate(82.661 42.337)">
      <path id="Path_107" data-name="Path 107" d="M133.207,82.69q5.85,0,11.1-5.519h9.508a20.5,20.5,0,0,1-8.112,9.541,22.454,22.454,0,0,1-12.367,3.624,22.212,22.212,0,0,1-16.323-6.848A22.373,22.373,0,0,1,110.2,67.132,23.042,23.042,0,0,1,133.14,44.26a22.6,22.6,0,0,1,16.622,7.047,20.683,20.683,0,0,1,4.322,6.516h-9.308a16.42,16.42,0,0,0-5.951-4.621,15.362,15.362,0,0,0-5.95-1.3,13.436,13.436,0,0,0-10.14,4.588,15.624,15.624,0,0,0,.1,21.608A13.886,13.886,0,0,0,133.207,82.69Z" transform="translate(-110.202 -44.26)" fill="#fff"/>
    </g>
    <circle id="Ellipse_5" data-name="Ellipse 5" cx="4.632" cy="4.632" r="4.632" transform="translate(101.22 60.797)" fill="#fff"/>
    <path id="Path_108" data-name="Path 108" d="M175.958,115.383a5.709,5.709,0,1,1,5.71-5.709A5.716,5.716,0,0,1,175.958,115.383Zm0-10.845a5.135,5.135,0,1,0,5.135,5.135A5.141,5.141,0,0,0,175.958,104.538Z" transform="translate(-70.106 -44.244)" fill="#fff"/>
    <path id="Path_109" data-name="Path 109" d="M181.459,124.824h-4.6l.043-.346a2.828,2.828,0,0,0-.64-1.836l-.085-.136c-.388-.625-.842-1.23-1.281-1.816-.188-.252-.377-.5-.561-.758-.031-.043-.064-.085-.1-.127-.054-.068-.107-.136-.156-.208a.925.925,0,1,1,1.473-1.121c.185.221.364.446.542.674v-1.094q0-2.177,0-4.353a1,1,0,0,1,.666-1.061.873.873,0,0,1,.787.121,1.039,1.039,0,0,1,.4.852q0,1.2,0,2.4v.043a.944.944,0,0,1,.415-.1h.011a.863.863,0,0,1,.873.672,1,1,0,0,1,.468-.1.886.886,0,0,1,.851.622.907.907,0,0,1,1.094.121.987.987,0,0,1,.293.707,24.669,24.669,0,0,1-.252,4.768c-.072.391-.11.788-.151,1.206-.02.2-.039.394-.061.594Zm-3.931-.616h3.38c.011-.1.021-.207.031-.31.04-.413.082-.841.158-1.258a24.246,24.246,0,0,0,.243-4.649.375.375,0,0,0-.105-.271.3.3,0,0,0-.2-.078c-.178,0-.306.155-.321.377l-.115,2.495-.509-2.089a3.524,3.524,0,0,1-.078-.773l-.006-.173a.3.3,0,0,0-.3-.327c-.124,0-.273.03-.307.292-.015.116-.02.233-.026.367l-.069,1.173-.564-.88-.049-.176,0-.36c0-.2,0-.4-.009-.6-.011-.39-.231-.388-.306-.385-.2,0-.3.136-.306.4,0,.151,0,.3,0,.453v.527l-.7-.006-.02-.4c0-.082-.01-.164-.01-.247v-1.284q0-1.2,0-2.4a.441.441,0,0,0-.148-.358.259.259,0,0,0-.239-.03c-.128.04-.235.1-.234.472q0,2.177,0,4.355v2.819l-1.014-1.234c-.2-.259-.405-.518-.616-.769a.324.324,0,0,0-.466-.075.317.317,0,0,0-.024.456c.04.059.084.115.128.17s.076.1.112.147c.183.252.369.5.557.75.447.6.909,1.214,1.311,1.861l.084.134A3.818,3.818,0,0,1,177.528,124.208Z" transform="translate(-72.688 -50.364)" fill="url(#linear-gradient)"/>
    <path id="Path_110" data-name="Path 110" d="M182.328,125.829h-3.71a3.111,3.111,0,0,0-.717-2.026c-.522-.84-1.147-1.615-1.729-2.417-.075-.1-.16-.2-.231-.3a.579.579,0,0,1,.08-.809.587.587,0,0,1,.835.109c.29.345.562.7.843,1.057.034.043.07.084.17.2v-.484q0-2.707,0-5.413c0-.327.074-.607.42-.715.39-.123.731.172.733.635,0,1.145,0,2.291,0,3.436,0,.107.01.215.015.322h.092c0-.21-.005-.42,0-.63.012-.4.229-.645.57-.649s.565.233.576.639c.008.3.007.6.012.9,0,.01.011.019.052.083.014-.224.015-.4.037-.572a.538.538,0,0,1,.577-.523.559.559,0,0,1,.561.581,4.048,4.048,0,0,0,.07.826c0-.11.008-.22.015-.329a.612.612,0,0,1,.579-.62.581.581,0,0,1,.58.61,22.686,22.686,0,0,1-.23,4.391C182.428,124.684,182.394,125.249,182.328,125.829Z" transform="translate(-74.051 -52.069)" fill="#fff"/>
    <g id="Group_33" data-name="Group 33" transform="translate(93.582 51.852)">
      <path id="Path_111" data-name="Path 111" d="M166.056,96.806a9.171,9.171,0,0,0,.059-12.684,7.887,7.887,0,0,0-5.952-2.693,9.018,9.018,0,0,0-3.493.761,9.64,9.64,0,0,0-3.493,2.713h-5.464a12.138,12.138,0,0,1,2.537-3.825,13.265,13.265,0,0,1,9.757-4.137,13.526,13.526,0,0,1,13.464,13.426,13.552,13.552,0,0,1-20.84,11.493,12.035,12.035,0,0,1-4.761-5.6h5.581q3.083,3.24,6.518,3.239A8.151,8.151,0,0,0,166.056,96.806Z" transform="translate(-147.713 -76.941)" fill="#fff"/>
    </g>
  </g>
</svg>
